<?xml version="1.0" standalone="no"?>
<!DOCTYPE svg PUBLIC "-//W3C//DTD SVG 1.1//EN" "http://www.w3.org/Graphics/SVG/1.1/DTD/svg11.dtd" >
<svg xmlns="http://www.w3.org/2000/svg" xmlns:xlink="http://www.w3.org/1999/xlink" version="1.1">
<metadata>
Created by FontForge 20161003 at Mon Jul 16 04:06:59 2018
 By www-data
</metadata>
<defs>
<font id="SaiyanSans" horiz-adv-x="500" >
  <font-face 
    font-family="SaiyanSans"
    font-weight="400"
    font-stretch="normal"
    units-per-em="1000"
    panose-1="0 0 0 0 0 0 0 0 0 0"
    ascent="750"
    descent="-250"
    x-height="499"
    cap-height="700"
    bbox="-70 -3 779 704"
    underline-thickness="50"
    underline-position="-150"
    unicode-range="U+0020-007A"
  />
<missing-glyph 
 />
    <glyph glyph-name=".notdef" 
 />
    <glyph glyph-name=".null" horiz-adv-x="0" 
 />
    <glyph glyph-name="nonmarkingreturn" 
 />
    <glyph glyph-name="space" unicode=" " 
 />
    <glyph glyph-name="space" unicode="&#xa0;" 
 />
    <glyph glyph-name="A" unicode="A" horiz-adv-x="416" 
d="M286 690l130 -689h-182l-13 195l-39 -14v-181l-182 13l103 689zM182 339h39l-26 104z" />
    <glyph glyph-name="B" unicode="B" horiz-adv-x="410" 
d="M308 302q43 -29 62 -73.5t15.5 -89t-30 -81.5t-74.5 -52q-20 -5 -56 -6t-72 1q-42 1 -90 5l-25 397l-38 14l12 255q77 29 145.5 29t122 -22t87 -62t41 -91t-15.5 -109t-84 -115zM166 403q15 5 22 22.5t7 38t-7 40t-22 28.5v-129zM192 110q10 4 16 15t6 24.5t-8 27
t-27 23.5z" />
    <glyph glyph-name="C" unicode="C" horiz-adv-x="562" 
d="M562 202q-19 -43 -47 -80.5t-63 -65t-75.5 -43t-83.5 -15.5q-62 0 -115.5 29t-93 78t-62 114t-22.5 137t22.5 134.5t62 109t93 73.5t115.5 27q43 0 83.5 -14t75.5 -39t63 -60t47 -78l-178 -52q-11 30 -36.5 41t-54.5 11q-19 0 -37 -9.5t-32.5 -26t-23.5 -40t-9 -51.5
q0 -25 9 -48t23.5 -41t32.5 -29t37 -11t38 8.5t39 17.5z" />
    <glyph glyph-name="D" unicode="D" horiz-adv-x="301" 
d="M0 700q64 -2 116.5 -29t90.5 -70t61 -98.5t29.5 -115.5t-4 -120t-40.5 -113t-80 -94t-122 -62v396l-38 12zM141 253q24 5 37.5 24t15 40.5t-11.5 40t-41 23.5v-128z" />
    <glyph glyph-name="E" unicode="E" horiz-adv-x="381" 
d="M356 369l-140 25v-76l76 13l-13 -76l-63 -26l-13 -50l127 37l-13 -164l-304 -51l25 419l-38 26l51 228l330 25l-25 -330v0z" />
    <glyph glyph-name="F" unicode="F" horiz-adv-x="383" 
d="M358 395h-141l12 -51l77 26v-128l-77 -26l14 -204l-218 -13l13 421l-38 26l52 242l331 13l-25 -306v0z" />
    <glyph glyph-name="G" unicode="G" horiz-adv-x="586" 
d="M572 445q11 -29 12.5 -49.5t1.5 -39.5v-64q-10 -62 -37 -115.5t-66.5 -92.5t-88.5 -61.5t-102 -22.5q-62 0 -115 29t-92.5 77.5t-62 113t-22.5 136.5q0 71 22.5 133.5t62 109t92.5 73.5t115 27q43 0 83 -13.5t75 -38.5t63 -60.5t47 -78.5l-178 -50q-5 14 -13.5 23.5
t-19 15.5t-22 8.5t-21.5 2.5q-24 0 -44.5 -9t-36.5 -25.5t-25 -40t-9 -52.5q0 -24 9 -46.5t25 -40.5t36.5 -29t44.5 -11q20 0 43.5 16t32.5 36l-127 12v127h140h177v0z" />
    <glyph glyph-name="H" unicode="H" horiz-adv-x="460" 
d="M319 0l-26 165l-64 -12l-12 -141h-192l-25 689l229 -37l-12 -332l63 12l-12 357h179l13 -689l-141 -12v0z" />
    <glyph glyph-name="I" unicode="I" horiz-adv-x="224" 
d="M27 1l-27 686l224 13l-39 -699h-158v0z" />
    <glyph glyph-name="J" unicode="J" horiz-adv-x="495" 
d="M277 691q38 3 74 6q31 2 64 4.5t58 2.5q9 -68 16.5 -150t4 -164.5t-23 -159.5t-62.5 -135q-49 -58 -101 -78t-101 -10t-91 45.5t-70.5 86.5t-39.5 113t2 127l179 -53q-5 -18 -6 -46t7.5 -52t29.5 -37.5t60 -4.5q26 6 38 37t14.5 76.5t-3 100t-14 108.5t-18.5 102t-17 81z
" />
    <glyph glyph-name="K" unicode="K" horiz-adv-x="486" 
d="M486 639l-218 -345l205 -179l-153 -115l-141 166v-153l-153 -13l-26 704h205l-13 -244l102 218l192 -39v0z" />
    <glyph glyph-name="L" unicode="L" horiz-adv-x="344" 
d="M13 701h204l-39 -447l166 39l-26 -256l-318 -37l13 701v0z" />
    <glyph glyph-name="M" unicode="M" horiz-adv-x="612" 
d="M559 700l53 -702l-234 13l14 196l-80 -170l-90 170v-196l-222 -13l53 689l143 13l103 -273l117 260l143 13v0z" />
    <glyph glyph-name="N" unicode="N" horiz-adv-x="443" 
d="M196 702l77 -195v195h157l13 -703h-157l-52 105v-105h-234l52 703h144z" />
    <glyph glyph-name="O" unicode="O" horiz-adv-x="498" 
d="M258 594q51 0 95 -18.5t76 -50.5t50.5 -76t18.5 -95q0 -52 -18.5 -98.5t-50.5 -82t-76 -56.5t-95 -21q-52 0 -98.5 21t-82 56.5t-56.5 82t-21 98.5q0 51 21 95t56.5 76t82 50.5t98.5 18.5zM310 336l50 52h-68l-34 68l-18 -68h-86l70 -52l-36 -86l70 52l68 -52z" />
    <glyph glyph-name="P" unicode="P" horiz-adv-x="377" 
d="M208 3h-143l-26 402l-39 13l13 258q78 29 147 25t119.5 -33.5t76.5 -80t19 -113t-53 -133.5t-140 -142zM169 405q15 5 22 22t7 38t-7 40.5t-22 29.5v-130z" />
    <glyph glyph-name="Q" unicode="Q" horiz-adv-x="618" 
d="M515 2l-50 50q-30 -28 -74.5 -39t-94.5 -11q-63 0 -117 27t-93.5 74t-62.5 110.5t-23 136.5q0 72 23 135.5t62.5 110.5t93.5 74t117 27t117.5 -27t94 -74t62 -110.5t22.5 -135.5q0 -39 -3 -77.5t-21 -77.5l50 -51zM193 375q0 -24 9 -47t25 -41t37 -29t45 -11
q20 0 38.5 11t33 29t23 41t8.5 47q0 29 -8.5 53t-23 41t-33 26t-38.5 9q-24 0 -45 -9t-37 -26t-25 -41t-9 -53z" />
    <glyph glyph-name="R" unicode="R" horiz-adv-x="397" 
d="M268 -2l-114 205l13 -191h-153l12 409l-26 12v242q70 26 132.5 24.5t110 -24t77 -63.5t34.5 -93.5t-18 -114t-81 -125.5l142 -178zM154 395q14 0 23 14.5t10 33.5t-6.5 38t-26.5 29v-115z" />
    <glyph glyph-name="S" unicode="S" horiz-adv-x="432" 
d="M189 699q66 9 118.5 -16.5t84 -75t39 -117t-16.5 -142.5q-14 5 -40.5 9t-53.5 8q-32 4 -67 8q12 25 15 45q2 17 -6 33.5t-36 21.5q-32 4 -52.5 -7t-28 -29t-3 -39.5t22.5 -36.5q18 -16 47 -31.5t77 -31.5t77 -52t35 -78t-14.5 -81.5t-72.5 -62.5q-34 -16 -71.5 -18.5
t-72 6t-65 27.5t-51 46.5t-28.5 62.5t1 76q5 0 27 -6t47 -14q29 -9 64 -19q0 -33 15.5 -49.5t35 -20t38 5.5t24.5 28q5 16 -14.5 32.5t-49.5 31t-61.5 27t-50.5 21.5q-57 28 -84.5 85t-10.5 147q9 46 21 80.5t32.5 59t51 40.5t77.5 26z" />
    <glyph glyph-name="T" unicode="T" horiz-adv-x="462" 
d="M462 699l-13 -224h-133v-475h-196l39 488l-159 -13l13 211l449 13v0z" />
    <glyph glyph-name="U" unicode="U" horiz-adv-x="516" 
d="M281 676q41 4 80 8q33 4 68.5 8.5t60.5 9.5q6 -52 14 -124t10.5 -150t-5 -155t-31.5 -137.5t-68 -98t-116 -37.5q-74 0 -127 34t-87.5 90t-52.5 129t-23.5 151t0 155.5t18.5 142.5l183 -52q-3 -13 -10.5 -52.5t-13 -91.5t-6 -109.5t9 -105t32 -78.5t64.5 -31
q26 0 40 28.5t18.5 73.5t0.5 101t-12.5 111t-21 103t-25.5 77z" />
    <glyph glyph-name="V" unicode="V" horiz-adv-x="572" 
d="M0 673l204 25l88 -304l102 304l178 -51l-280 -647l-292 673v0z" />
    <glyph glyph-name="W" unicode="W" horiz-adv-x="611" 
d="M52 0l-52 703l234 -13l-13 -287l90 196l78 -196v287l222 13l-52 -703l-144 13l-104 261l-116 -274h-143v0z" />
    <glyph glyph-name="X" unicode="X" horiz-adv-x="647" 
d="M647 608l-221 -335l91 -221l-155 -52l-65 91l-51 -91l-170 64l118 209l-194 323l233 91l89 -195l118 207l207 -91v0z" />
    <glyph glyph-name="Y" unicode="Y" horiz-adv-x="574" 
d="M403 699l171 -73l-378 -623l-159 122l171 245l-208 219l171 98l135 -182l97 194v0z" />
    <glyph glyph-name="Z" unicode="Z" horiz-adv-x="779" 
d="M357 176h77l281 256l-141 -435h-574l256 331l-40 90l104 -13l64 91h-104l-230 -206l102 409h627l-307 -371l38 -75h-89l-64 -77v0z" />
    <glyph glyph-name="a" unicode="a" horiz-adv-x="359" 
d="M247 596l112 -595h-157l-11 168l-34 -12v-156l-157 11l89 595zM157 293h34l-23 90z" />
    <glyph glyph-name="b" unicode="b" horiz-adv-x="351" 
d="M264 258q37 -25 53 -63t13 -76t-25.5 -70t-63.5 -45q-17 -4 -48 -4.5t-62 0.5q-36 1 -77 4l-21 340l-33 12l10 219q66 25 125 24.5t104.5 -19t74.5 -53t35 -78t-13.5 -93t-71.5 -98.5zM142 344q13 4 19 19t6 32.5t-6 34.5t-19 25v-111zM164 93q9 4 14.5 13.5t5.5 21
t-7.5 23t-23.5 19.5z" />
    <glyph glyph-name="c" unicode="c" horiz-adv-x="487" 
d="M487 175q-17 -38 -41 -70t-54.5 -56t-65.5 -37.5t-72 -13.5q-54 0 -100 25t-80.5 67.5t-54 99t-19.5 118.5t19.5 116.5t54 95t80.5 63.5t100 23q37 0 72 -12t65.5 -34t54.5 -52t41 -67l-154 -45q-9 26 -31 35.5t-48 9.5q-16 0 -32 -8t-28.5 -22.5t-20.5 -35t-8 -44.5
q0 -22 8 -42t20.5 -35.5t28.5 -25t32 -9.5t33 7t34 15z" />
    <glyph glyph-name="d" unicode="d" horiz-adv-x="259" 
d="M0 602q74 -3 129 -42t87 -98t40 -129.5t-11.5 -136.5t-69 -120t-131.5 -78v341l-33 10zM121 217q21 5 32.5 21t12.5 34.5t-9.5 34.5t-35.5 21v-111z" />
    <glyph glyph-name="e" unicode="e" horiz-adv-x="333" 
d="M311 323l-122 21v-66l66 11l-11 -66l-55 -23l-12 -43l111 32l-11 -143l-266 -45l22 366l-33 23l45 199l288 22l-22 -288v0z" />
    <glyph glyph-name="f" unicode="f" horiz-adv-x="334" 
d="M313 345h-124l11 -45l67 23v-112l-67 -23l12 -178l-190 -11l11 368l-33 22l45 212l289 11l-21 -267v0z" />
    <glyph glyph-name="g" unicode="g" horiz-adv-x="504" 
d="M492 383q9 -25 10.5 -42.5t1.5 -34.5v-55q-8 -53 -31.5 -99t-57.5 -80t-76.5 -53t-87.5 -19q-53 0 -99 24.5t-79.5 66.5t-53 97.5t-19.5 117.5q0 61 19.5 115t53 94t79.5 63t99 23q75 0 136.5 -44.5t94.5 -119.5l-153 -43q-8 25 -28.5 34t-37.5 9q-41 0 -70 -29.5
t-29 -79.5q0 -21 8 -40.5t21.5 -35t31.5 -25t38 -9.5q17 0 37.5 14t28.5 31l-110 10v110h121h152v0z" />
    <glyph glyph-name="h" unicode="h" horiz-adv-x="394" 
d="M273 0l-22 141l-55 -10l-10 -121h-165l-21 590l196 -31l-10 -285l54 11l-11 305h154l11 -590l-121 -10v0z" />
    <glyph glyph-name="i" unicode="i" horiz-adv-x="198" 
d="M24 1l-24 607l198 12l-34 -619h-140v0z" />
    <glyph glyph-name="j" unicode="j" horiz-adv-x="426" 
d="M238 595q32 2 63 5q26 2 55.5 4t50.5 2q8 -59 14.5 -129.5t3.5 -141.5t-20 -137t-54 -116q-42 -50 -87 -67t-87 -8.5t-78.5 38.5t-60.5 74t-33.5 97.5t1.5 109.5l154 -45q-4 -16 -5 -40t6.5 -45t25.5 -32.5t51 -3.5q23 5 33.5 32t12.5 66t-3 86t-12.5 93.5t-16 88
t-14.5 69.5z" />
    <glyph glyph-name="k" unicode="k" horiz-adv-x="420" 
d="M420 552l-188 -298l177 -155l-132 -99l-122 144v-133l-133 -11l-22 609h177l-11 -211l88 188l166 -34v0z" />
    <glyph glyph-name="l" unicode="l" horiz-adv-x="294" 
d="M11 599h174l-33 -382l142 33l-22 -218l-272 -32l11 599v0z" />
    <glyph glyph-name="m" unicode="m" horiz-adv-x="521" 
d="M476 595l45 -597l-199 11l12 167l-68 -145l-77 145v-167l-189 -11l45 586l122 11l87 -232l100 221l122 11v0z" />
    <glyph glyph-name="n" unicode="n" horiz-adv-x="382" 
d="M169 606l67 -168v168h135l11 -607h-135l-45 91v-91h-202l45 607h124z" />
    <glyph glyph-name="o" unicode="o" horiz-adv-x="252" 
d="M133 499q40 0 74.5 -14.5t60 -40t40 -60t14.5 -74.5q0 -41 -14.5 -78t-40 -64.5t-60 -44t-74.5 -16.5q-41 0 -78 16.5t-64.5 44t-44 64.5t-16.5 78q0 40 16.5 74.5t44 60t64.5 40t78 14.5zM174 296l39 41h-53l-27 53l-14 -53h-68l55 -41l-28 -68l55 41l54 -41z" />
    <glyph glyph-name="p" unicode="p" horiz-adv-x="313" 
d="M173 3h-119l-22 334l-32 11l11 214q65 24 122.5 21t99 -27.5t63.5 -66.5t15.5 -94t-44.5 -111t-116 -118zM140 337q12 4 18.5 18.5t6.5 31.5t-6.5 33.5t-18.5 24.5v-108z" />
    <glyph glyph-name="q" unicode="q" horiz-adv-x="528" 
d="M440 2l-43 43q-26 -24 -64 -33.5t-80 -9.5q-54 0 -100 23t-80 63t-53.5 94.5t-19.5 116.5t19.5 116t53.5 94.5t80 63.5t100 23t100.5 -23t80 -63.5t53 -94.5t19.5 -116q0 -33 -2.5 -66t-18.5 -66l43 -44zM165 321q0 -21 7.5 -40.5t21 -35t31.5 -25t39 -9.5q17 0 33 9.5
t28 25t19.5 35t7.5 40.5q0 50 -27 80t-61 30q-42 0 -70.5 -30t-28.5 -80z" />
    <glyph glyph-name="r" unicode="r" horiz-adv-x="340" 
d="M230 -2l-98 176l11 -164h-131l10 350l-22 11v207q60 22 113.5 21t94 -20.5t66 -54.5t29.5 -80t-16 -97.5t-69 -107.5l122 -153zM132 338q12 0 19.5 12t9 28.5t-5.5 33t-23 24.5v-98z" />
    <glyph glyph-name="s" unicode="s" horiz-adv-x="371" 
d="M162 596q56 7 101 -15t72 -64t33.5 -100.5t-13.5 -122.5q-12 4 -35 8t-46 7q-27 4 -57 6q10 21 12 39q2 15 -4.5 28.5t-30.5 18.5q-28 4 -45.5 -5.5t-24 -25t-2.5 -34t19 -31.5q16 -14 41 -27t66 -27t66 -45t30 -66.5t-12.5 -70t-62.5 -53.5q-44 -20 -92.5 -15.5
t-86.5 28.5t-58.5 65t-8.5 94q4 0 23 -5.5t40 -11.5q25 -8 55 -17q0 -28 13.5 -42t30.5 -17t32.5 4.5t20.5 23.5q5 14 -12 28t-42.5 26.5t-53 23.5t-43.5 19q-48 23 -72 72t-10 127q8 40 19 69.5t28 50.5t43.5 34.5t66.5 22.5z" />
    <glyph glyph-name="t" unicode="t" horiz-adv-x="391" 
d="M391 591l-11 -189h-113v-402h-166l33 413l-134 -11l11 178l380 11v0z" />
    <glyph glyph-name="u" unicode="u" horiz-adv-x="449" 
d="M245 589q37 3 70 7q29 3 59.5 6.5t52.5 8.5l12 -108t9 -131t-4.5 -134.5t-27.5 -119.5t-59.5 -85.5t-100.5 -32.5q-65 0 -110.5 29.5t-76 78.5t-46 112.5t-20.5 131.5t0 135t16 124l160 -45q-3 -11 -9.5 -45.5t-11 -80t-5.5 -95.5t7.5 -91.5t28 -68.5t56.5 -27
q23 0 35 25t15.5 64t0.5 88t-10.5 97t-18.5 89.5t-22 67.5z" />
    <glyph glyph-name="v" unicode="v" horiz-adv-x="496" 
d="M0 583l177 22l76 -263l89 263l154 -44l-243 -561l-253 583v0z" />
    <glyph glyph-name="w" unicode="w" horiz-adv-x="519" 
d="M44 0l-44 597l199 -11l-11 -244l76 167l66 -167v244l189 11l-44 -597l-122 11l-89 222l-98 -233h-122v0z" />
    <glyph glyph-name="x" unicode="x" horiz-adv-x="555" 
d="M555 521l-190 -287l78 -189l-133 -45l-55 78l-44 -78l-146 55l101 179l-166 277l200 78l76 -167l101 177l178 -78v0z" />
    <glyph glyph-name="y" unicode="y" horiz-adv-x="488" 
d="M343 595l145 -62l-321 -530l-136 104l146 208l-177 186l145 84l115 -155l83 165v0z" />
    <glyph glyph-name="z" unicode="z" horiz-adv-x="667" 
d="M306 150h66l240 219l-121 -372h-491l219 283l-34 77l89 -11l55 78h-89l-197 -176l87 350h537l-263 -318l33 -64h-77l-54 -66v0z" />
  </font>
</defs>
</svg>
